<svg id="Layer_1" enable-background="new 0 0 20 20" height="512" viewBox="0 0 20 20" width="512" xmlns="http://www.w3.org/2000/svg"><g fill="rgb(0,0,0)"><path d="m16.8 2c-.4-1.2-1.5-2-2.8-2-1.7 0-3 1.3-3 3s1.3 3 3 3c1.3 0 2.4-.8 2.8-2h3.2v-2zm-2.8 2c-.6 0-1-.4-1-1s.4-1 1-1 1 .4 1 1-.4 1-1 1z"/><path d="m0 2h10v2h-10z"/><path d="m0 16h12v2h-12z"/><path d="m16 14c-1.7 0-3 1.3-3 3s1.3 3 3 3c1.3 0 2.4-.8 2.8-2h1.2v-2h-1.2c-.4-1.2-1.5-2-2.8-2zm0 4c-.6 0-1-.4-1-1s.4-1 1-1 1 .4 1 1-.4 1-1 1z"/><path d="m11 9h9v2h-9z"/><path d="m7 13c1.7 0 3-1.3 3-3s-1.3-3-3-3c-1.3 0-2.4.8-2.8 2h-4.2v2h4.2c.4 1.2 1.5 2 2.8 2zm0-4c.6 0 1 .4 1 1s-.4 1-1 1-1-.4-1-1 .4-1 1-1z"/></g></svg>