<svg clip-rule="evenodd" fill-rule="evenodd" stroke-linejoin="round" stroke-miterlimit="2" viewBox="0 0 32 32" xmlns="http://www.w3.org/2000/svg" xmlns:serif="http://www.serif.com/"><g transform="translate(-136 -220)"><path d="m155.07 226.241c.305 1.27.11 2.72.009 4.048-.04.53-.064 1.036.007 1.487.048.305.137.58.347.79.21.211.486.299.79.347.451.072.957.048 1.488.007 1.327-.101 2.778-.295 4.048.01 1.424.342 2.615.897 3.371 1.926.739 1.006 1.109 2.511.696 4.888-.831 4.782-5.05 10.256-12.645 10.256-4.189 0-7.985-1.701-10.733-4.449s-4.448-6.543-4.448-10.733c0-7.595 5.409-11.802 10.256-12.645 2.376-.413 3.882-.043 4.888.697 1.028.756 1.584 1.946 1.926 3.371zm-1.945.466c-.221-.922-.5-1.736-1.166-2.226-.688-.505-1.735-.62-3.361-.337-4.08.709-8.598 4.28-8.598 10.674 0 3.638 1.476 6.933 3.862 9.319s5.682 3.863 9.319 3.863c6.394 0 9.975-4.573 10.675-8.599.282-1.626.168-2.673-.338-3.361-.489-.666-1.304-.944-2.226-1.166-1.327-.318-2.88.052-4.203.081-1.237.028-2.308-.212-3.07-.974s-1.002-1.834-.975-3.07c.029-1.324.399-2.876.081-4.204zm5.592 13.182c1.366 1.366 1.366 3.584 0 4.95-1.366 1.365-3.584 1.365-4.95 0-1.365-1.366-1.365-3.584 0-4.95 1.366-1.366 3.584-1.366 4.95 0zm-1.414 1.414c-.585-.585-1.536-.585-2.121 0-.586.585-.586 1.536 0 2.121.585.586 1.536.586 2.121 0 .585-.585.585-1.536 0-2.121zm-9.192-12.021c1.366 1.366 1.366 3.584 0 4.95s-3.584 1.366-4.95 0-1.366-3.584 0-4.95 3.584-1.366 4.95 0zm-1.415 1.414c-.585-.585-1.535-.585-2.121 0-.585.586-.585 1.536 0 2.122.586.585 1.536.585 2.121 0 .586-.586.586-1.536 0-2.122zm3.187 7.43c1.366 1.366 1.366 3.584 0 4.95s-3.584 1.366-4.95 0c-1.365-1.366-1.365-3.584 0-4.95 1.366-1.366 3.584-1.366 4.95 0zm-1.414 1.414c-.585-.585-1.536-.585-2.121 0-.586.585-.586 1.536 0 2.121.585.586 1.536.586 2.121 0 .585-.585.585-1.536 0-2.121z"/></g></svg>