<svg viewBox="0 0 24 24" xmlns="http://www.w3.org/2000/svg"><g id="a"/><g id="b"/><g id="c"/><g id="d"/><g id="e"/><g id="f"/><g id="g"/><g id="h"/><g id="i"/><g id="j"/><g id="k"/><g id="l"/><g id="m"/><g id="n"><g><path d="m9 1.5c-.83 0-1.5.67-1.5 1.5v4.5h-4.5c-.83 0-1.5.67-1.5 1.5s.67 1.5 1.5 1.5h5c1.38 0 2.5-1.12 2.5-2.5v-5c0-.83-.67-1.5-1.5-1.5z"/><path d="m16 10.5h5c.83 0 1.5-.67 1.5-1.5s-.67-1.5-1.5-1.5h-4.5v-4.5c0-.83-.67-1.5-1.5-1.5s-1.5.67-1.5 1.5v5c0 1.38 1.12 2.5 2.5 2.5z"/><path d="m8 13.5h-5c-.83 0-1.5.67-1.5 1.5s.67 1.5 1.5 1.5h4.5v4.5c0 .83.67 1.5 1.5 1.5s1.5-.67 1.5-1.5v-5c0-1.38-1.12-2.5-2.5-2.5z"/><path d="m21 13.5h-5c-1.38 0-2.5 1.12-2.5 2.5v5c0 .83.67 1.5 1.5 1.5s1.5-.67 1.5-1.5v-4.5h4.5c.83 0 1.5-.67 1.5-1.5s-.67-1.5-1.5-1.5z"/></g></g><g id="o"/><g id="p"/><g id="q"/><g id="r"/><g id="s"/><g id="t"/><g id="u"/></svg>