<svg id="Layer_1" viewBox="0 0 850.39 850.39" xmlns="http://www.w3.org/2000/svg"><g fill="rgb(0,0,0)"><path d="m616.23 286.19-111.71-79.44c-4.13-2.93-9.84.02-9.84 5.08v57.79h-155.91c-99.21 0-179.92 80.71-179.92 179.92v60.55c0 11.05 8.95 20 20 20s20-8.95 20-20v-60.55c0-77.15 62.77-139.92 139.92-139.92h155.91v61.09c0 5.06 5.72 8.01 9.84 5.08l111.71-79.44c3.49-2.48 3.49-7.67 0-10.15z"/><path d="m671.54 350.06c-11.05 0-20 8.95-20 20v60.55c0 77.15-62.77 139.92-139.92 139.92h-155.91v-61.09c0-5.06-5.72-8.01-9.84-5.08l-111.71 79.44c-3.49 2.48-3.49 7.67 0 10.15l111.71 79.44c4.12 2.93 9.84-.02 9.84-5.08v-57.79h155.91c99.21 0 179.92-80.71 179.92-179.92v-60.55c0-11.05-8.95-20-20-20z"/><path d="m438.66 506.05c-6.96 0-12.59-5.64-12.59-12.59v-87.35l-8.64 7.31c-5.31 4.49-13.26 3.83-17.75-1.47-4.49-5.31-3.83-13.26 1.47-17.75l29.37-24.86c3.74-3.17 8.98-3.88 13.43-1.81 4.45 2.06 7.3 6.52 7.3 11.43v114.51c0 6.96-5.64 12.59-12.59 12.59z"/></g></svg>