<svg xmlns="http://www.w3.org/2000/svg" version="1.1" xmlns:xlink="http://www.w3.org/1999/xlink" width="512" height="512" x="0" y="0" viewBox="0 0 32 32" style="enable-background:new 0 0 512 512" xml:space="preserve"><g><path d="M7.33 30A3.33 3.33 0 0 1 4 26.67V5.38A3.38 3.38 0 0 1 7.38 2 3.23 3.23 0 0 1 9 2.45l17.13 9.92a3.65 3.65 0 0 1 .12 6.26L9.1 29.49a3.34 3.34 0 0 1-1.77.51zm0-26A1.38 1.38 0 0 0 6 5.38v21.29A1.34 1.34 0 0 0 7.33 28a1.31 1.31 0 0 0 .67-.21l17.23-10.85a1.66 1.66 0 0 0-.06-2.84L8 4.18A1.28 1.28 0 0 0 7.38 4z" data-name="01-Play" fill="#ffffff" opacity="1" data-original="#000000"></path></g></svg>