<svg fill="none" height="512" viewBox="0 0 24 24" width="512" xmlns="http://www.w3.org/2000/svg"><path clip-rule="evenodd" d="m17 9.95968c0 .41922.485.65232.8123.39042l3.6997-2.95967c.2502-.20016.2502-.58071 0-.78087l-3.6997-2.95969c-.3273-.2619-.8123-.02882-.8123.39044v2.00302c-1.0836.14358-2.0972.63966-2.8787 1.42115l-3.1213 3.12132-4.12132-4.12133c-.93768-.93769-2.20945-1.46447-3.53553-1.46447h-.34315c-.55229 0-1 .44771-1 1s.44771 1 1 1h.34315c.79564 0 1.55871.31607 2.12132.87868l4.12132 4.12132-4.12132 4.1213c-.56261.5626-1.32567.8787-2.12132.8787h-.34315c-.55228 0-1 .4477-1 1s.44772 1 1 1h.34315c1.32608 0 2.59785-.5268 3.53553-1.4645l4.82842-4.8284 3.8284-3.82841c.4051-.40511.9142-.6824 1.4645-.8059zm0 5.96752v-1.8869c0-.4193.485-.6523.8123-.3904l3.6997 2.9597c.2502.2001.2502.5807 0 .7808l-3.6997 2.9597c-.3273.2619-.8123.0288-.8123-.3904v-2.003c-1.0836-.1436-2.0972-.6397-2.8787-1.4212l-1.3284-1.3284c-.3905-.3905-.3905-1.0237 0-1.4142s1.0237-.3905 1.4142 0l1.3284 1.3284c.4051.4051.9142.6824 1.4645.8059z" fill="rgb(0,0,0)" fill-rule="evenodd"/></svg>